<?xml version="1.0" standalone="no"?>
<!DOCTYPE svg PUBLIC "-//W3C//DTD SVG 20010904//EN"
 "http://www.w3.org/TR/2001/REC-SVG-20010904/DTD/svg10.dtd">
<svg version="1.0" xmlns="http://www.w3.org/2000/svg"
 width="260.000000pt" height="260.000000pt" viewBox="0 0 260.000000 260.000000"
 preserveAspectRatio="xMidYMid meet">
<metadata>
Created by potrace 1.14, written by Peter Selinger 2001-2017
</metadata>
<g transform="translate(0.000000,260.000000) scale(0.100000,-0.100000)"
fill="#000000" stroke="none">
<path d="M525 2550 c-111 -29 -183 -66 -264 -135 -107 -92 -187 -225 -216
-360 -22 -103 -22 -1419 0 -1513 39 -168 139 -311 284 -408 45 -30 147 -75
206 -91 17 -4 356 -8 755 -10 l725 -2 82 24 c45 14 114 44 153 67 151 91 257
234 300 406 18 72 20 118 20 778 -1 660 -2 705 -20 770 -35 126 -78 203 -165
295 -79 83 -202 154 -322 186 -15 4 -352 8 -748 10 -676 2 -724 1 -790 -17z"/>
</g>
</svg>
